<svg width="22" height="22" viewBox="0 0 22 22" fill="none" xmlns="http://www.w3.org/2000/svg">
<path d="M1.00001 10.6C1.00001 7.23969 1.00001 5.55953 1.65397 4.27606C2.22921 3.14708 3.14709 2.2292 4.27606 1.65396C5.55953 1 7.23969 1 10.6 1H11.4C14.7603 1 16.4405 1 17.724 1.65396C18.8529 2.2292 19.7708 3.14708 20.346 4.27606C21 5.55953 21 7.23969 21 10.6V11.4C21 14.7603 21 16.4405 20.346 17.7239C19.7708 18.8529 18.8529 19.7708 17.724 20.346C16.4405 21 14.7603 21 11.4 21H10.6C7.23969 21 5.55953 21 4.27606 20.346C3.14709 19.7708 2.22921 18.8529 1.65397 17.7239C1.00001 16.4405 1.00001 14.7603 1.00001 11.4V10.6Z" fill="black" stroke="black" stroke-width="2"/>
<path fill-rule="evenodd" clip-rule="evenodd" d="M17.707 6.29302C17.8945 6.48054 17.9998 6.73485 17.9998 7.00002C17.9998 7.26518 17.8945 7.51949 17.707 7.70702L9.70698 15.707C9.51945 15.8945 9.26514 15.9998 8.99998 15.9998C8.73482 15.9998 8.48051 15.8945 8.29298 15.707L4.29298 11.707C4.11082 11.5184 4.01003 11.2658 4.01231 11.0036C4.01458 10.7414 4.11975 10.4906 4.30516 10.3052C4.49057 10.1198 4.74138 10.0146 5.00358 10.0123C5.26578 10.0101 5.51838 10.1109 5.70698 10.293L8.99998 13.586L16.293 6.29302C16.4805 6.10554 16.7348 6.00023 17 6.00023C17.2651 6.00023 17.5195 6.10554 17.707 6.29302Z" fill="#FAFAFA"/>
</svg>
