<svg width="22" height="22" viewBox="0 0 22 22" fill="none" xmlns="http://www.w3.org/2000/svg">
<path d="M1.00001 10.6C1.00001 7.23969 1.00001 5.55953 1.65397 4.27606C2.22921 3.14708 3.14709 2.2292 4.27606 1.65396C5.55953 1 7.23969 1 10.6 1H11.4C14.7603 1 16.4405 1 17.724 1.65396C18.8529 2.2292 19.7708 3.14708 20.346 4.27606C21 5.55953 21 7.23969 21 10.6V11.4C21 14.7603 21 16.4405 20.346 17.7239C19.7708 18.8529 18.8529 19.7708 17.724 20.346C16.4405 21 14.7603 21 11.4 21H10.6C7.23969 21 5.55953 21 4.27606 20.346C3.14709 19.7708 2.22921 18.8529 1.65397 17.7239C1.00001 16.4405 1.00001 14.7603 1.00001 11.4V10.6Z" fill="white" stroke="#E8E8E8" stroke-width="2"/>
</svg>
